<svg xmlns="http://www.w3.org/2000/svg" viewBox="0 0 48 48"><defs><style>.cls-1{fill:#dad7e5;}.cls-2{fill:#7c7d7d;}.cls-3{fill:#747575;}.cls-4{fill:#edebf2;}.cls-5{fill:#919191;}.cls-6{fill:#6fabe6;}.cls-7{fill:#82bcf4;}.cls-8{fill:#374f68;}.cls-9{fill:#2c435e;}</style></defs><title>Ecommerce</title><g id="Ecommerce"><path class="cls-1" d="M47,31H1V7A4,4,0,0,1,5,3H43a4,4,0,0,1,4,4Z"/><path class="cls-2" d="M43,37H5a4,4,0,0,1-4-4V31H47v2A4,4,0,0,1,43,37Z"/><polygon class="cls-2" points="31 45 17 45 19 37 29 37 31 45"/><path class="cls-3" d="M35,46H13a1,1,0,0,1,0-2H35A1,1,0,0,1,35,46Z"/><path class="cls-4" d="M47,7V29H12a6,6,0,0,1-6-6V3H43A4,4,0,0,1,47,7Z"/><path class="cls-5" d="M47,31v2a4,4,0,0,1-4,4H10a4,4,0,0,1-4-4V31Z"/><polygon class="cls-3" points="29.5 39 18.5 39 19 37 29 37 29.5 39"/><path class="cls-6" d="M34,11c-1.79,8-1.41,6.34-2,9H17l-1.38-9Z"/><path class="cls-7" d="M34,11l-1.56,7H25.15a6,6,0,0,1-5.93-5.09L18.93,11Z"/><path class="cls-8" d="M18,20a1,1,0,0,0-1,1,1,1,0,0,1-1-.85c-.27-1.69,0,0-1.87-12.15H12a1,1,0,0,1,0-2h3a1,1,0,0,1,1,.85C18.24,21.45,18,19.83,18,20Z"/><path class="cls-8" d="M29,24H18a3,3,0,0,1-.29-6c.31,2.05.29,1.85.29,2a1,1,0,0,0,0,2H29A1,1,0,0,1,29,24Z"/><path class="cls-9" d="M17.15,21.5A1,1,0,0,0,18,23c11.75,0,11.43-.2,11.85.5A1,1,0,0,0,29,22C17.25,22,17.57,22.2,17.15,21.5Z"/><path class="cls-8" d="M21,26a1,1,0,0,0-2,0,1,1,0,0,0,2,0"/><path class="cls-8" d="M27,26a1,1,0,0,0-2,0,1,1,0,0,0,2,0"/><path class="cls-6" d="M39.71,23.29a1,1,0,0,1-1.42,1.42L37,23.41V24a1,1,0,0,1-2,0c0-4.52-.6-4,4-4a1,1,0,0,1,0,2h-.59Z"/><path class="cls-7" d="M39.87,24.49l-4.35-4.35C35.63,20,36.66,20,39,20a1,1,0,0,1,0,2h-.59C39.76,23.34,40.33,23.7,39.87,24.49Z"/></g></svg>